<svg width="24" height="24" viewBox="0 0 24 24" fill="none" xmlns="http://www.w3.org/2000/svg">
<path d="M2.65288 3.84123C2.26235 3.45071 2.26235 2.81754 2.65288 2.42702C3.0434 2.03649 3.67657 2.03649 4.06709 2.42702L13.6401 12L4.06709 21.573C3.67657 21.9635 3.0434 21.9635 2.65288 21.573C2.26235 21.1825 2.26235 20.5493 2.65288 20.1588L10.8116 12L2.65288 3.84123Z" fill="#8B8B91"/>
<path d="M10.6529 3.84123C10.2624 3.45071 10.2624 2.81754 10.6529 2.42702C11.0434 2.03649 11.6766 2.03649 12.0671 2.42702L21.6401 12L12.0671 21.573C11.6766 21.9635 11.0434 21.9635 10.6529 21.573C10.2624 21.1825 10.2624 20.5493 10.6529 20.1588L18.8116 12L10.6529 3.84123Z" fill="#8B8B91"/>
</svg>
