<svg width="24" height="24" viewBox="0 0 24 24" fill="none" xmlns="http://www.w3.org/2000/svg">
<path d="M13.3472 3.84123C13.7377 3.45071 13.7377 2.81754 13.3472 2.42702C12.9567 2.03649 12.3235 2.03649 11.933 2.42702L2.35999 12L11.933 21.573C12.3235 21.9635 12.9567 21.9635 13.3472 21.573C13.7377 21.1825 13.7377 20.5493 13.3472 20.1588L5.18841 12L13.3472 3.84123Z" fill="#8B8B91"/>
<path d="M21.3472 3.84123C21.7377 3.45071 21.7377 2.81754 21.3472 2.42702C20.9567 2.03649 20.3235 2.03649 19.933 2.42702L10.36 12L19.933 21.573C20.3235 21.9635 20.9567 21.9635 21.3472 21.573C21.7377 21.1825 21.7377 20.5493 21.3472 20.1588L13.1884 12L21.3472 3.84123Z" fill="#8B8B91"/>
</svg>
